HIERARCHY
ROOT Hips
{
	OFFSET 0.00 0.00 0.00
	CHANNELS 6 Xposition Yposition Zposition Yrotation Xrotation Zrotation
	JOINT LHipJoint
	{
		OFFSET	0.0000	0.0000	0.0000
		CHANNELS 3 Yrotation Xrotation Zrotation
		JOINT LeftUpLeg
		{
			OFFSET	1.0138	-0.0809	-0.0827
			CHANNELS 3 Yrotation Xrotation Zrotation
			JOINT LeftLeg
			{
				OFFSET	0.4110	-3.9095	0.3245
				CHANNELS 3 Yrotation Xrotation Zrotation
				JOINT LeftFoot
				{
					OFFSET	0.3810	-4.0555	-0.1470
					CHANNELS 3 Yrotation Xrotation Zrotation
					JOINT LeftToeBase
					{
						OFFSET	0.1396	-0.4462	1.3079
						CHANNELS 3 Yrotation Xrotation Zrotation
						End Site
						{
							OFFSET 0.0161 -0.0248 0.1809
						}
					}
				}
			}
		}
	}
	JOINT LowerBack
	{
		OFFSET	0.0000	0.7977	-0.3873
		CHANNELS 3 Yrotation Xrotation Zrotation
		JOINT Spine
		{
			OFFSET	0.0000	1.4131	0.1715
			CHANNELS 3 Yrotation Xrotation Zrotation
			JOINT Spine1
			{
				OFFSET	0.0000	1.4392	-0.1032
				CHANNELS 3 Yrotation Xrotation Zrotation
				JOINT LeftShoulder
				{
					OFFSET	0.2274	1.0382	0.4032
					CHANNELS 3 Yrotation Xrotation Zrotation
					JOINT LeftArm
					{
						OFFSET	1.4730	-0.2267	-0.0231
						CHANNELS 3 Yrotation Xrotation Zrotation
						JOINT LeftForeArm
						{
							OFFSET	1.6131	-1.8059	0.0081
							CHANNELS 3 Yrotation Xrotation Zrotation
							JOINT LeftHand
							{
								OFFSET	1.2197	-1.2423	1.6317
								CHANNELS 3 Yrotation Xrotation Zrotation
								JOINT LThumb
								{
									OFFSET	0.0109	-0.0753	0.4387
									CHANNELS 3 Yrotation Xrotation Zrotation
									End Site
									{
										OFFSET -0.2090 -0.0868 0.2097
									}
								}
								JOINT LeftFingerBase
								{
									OFFSET	0.1071	-0.1567	0.2607
									CHANNELS 3 Yrotation Xrotation Zrotation
									JOINT LeftHandFinger1
									{
										OFFSET	0.1706	-0.2492	0.6830
										CHANNELS 3 Yrotation Xrotation Zrotation
										End Site
										{
											OFFSET 0.0335 -0.1507 0.2071
										}
									}
								}
							}
						}
					}
				}
				JOINT Neck
				{
					OFFSET	0.0000	1.7498	0.2381
					CHANNELS 3 Yrotation Xrotation Zrotation
					JOINT Neck1
					{
						OFFSET	0.0000	0.5043	0.1959
						CHANNELS 3 Yrotation Xrotation Zrotation
						JOINT Head
						{
							OFFSET	0.0000	0.5044	0.1959
							CHANNELS 3 Yrotation Xrotation Zrotation
							End Site
							{
								OFFSET 0.0000 1.4798 -0.0693
							}
						}
					}
				}
				JOINT RightShoulder
				{
					OFFSET	-0.2274	1.0382	0.4032
					CHANNELS 3 Yrotation Xrotation Zrotation
					JOINT RightArm
					{
						OFFSET	-1.4730	-0.2267	-0.0231
						CHANNELS 3 Yrotation Xrotation Zrotation
						JOINT RightForeArm
						{
							OFFSET	-1.6131	-1.8059	0.0081
							CHANNELS 3 Yrotation Xrotation Zrotation
							JOINT RightHand
							{
								OFFSET	-1.2197	-1.2423	1.6317
								CHANNELS 3 Yrotation Xrotation Zrotation
								JOINT RThumb
								{
									OFFSET	-0.0109	-0.0753	0.4387
									CHANNELS 3 Yrotation Xrotation Zrotation
									End Site
									{
										OFFSET 0.2090 -0.0868 0.2097
									}
								}
								JOINT RightFingerBase
								{
									OFFSET	-0.1071	-0.1567	0.2607
									CHANNELS 3 Yrotation Xrotation Zrotation
									JOINT RightHandFinger1
									{
										OFFSET	-0.1706	-0.2492	0.6830
										CHANNELS 3 Yrotation Xrotation Zrotation
										End Site
										{
											OFFSET -0.0335 -0.1507 0.2071
										}
									}
								}
							}
						}
					}
				}
			}
		}
	}
	JOINT RHipJoint
	{
		OFFSET	0.0000	0.0000	0.0000
		CHANNELS 3 Yrotation Xrotation Zrotation
		JOINT RightUpLeg
		{
			OFFSET	-1.0138	-0.0809	-0.0827
			CHANNELS 3 Yrotation Xrotation Zrotation
			JOINT RightLeg
			{
				OFFSET	-0.4110	-3.9095	0.3245
				CHANNELS 3 Yrotation Xrotation Zrotation
				JOINT RightFoot
				{
					OFFSET	-0.3810	-4.0555	-0.1470
					CHANNELS 3 Yrotation Xrotation Zrotation
					JOINT RightToeBase
					{
						OFFSET	-0.1396	-0.4462	1.3079
						CHANNELS 3 Yrotation Xrotation Zrotation
						End Site
						{
							OFFSET -0.0161 -0.0248 0.1809
						}
					}
				}
			}
		}
	}
}
MOTION
Frames: 5
Frame Time: 0.0333333
0.0800 8.5272 0.0787 1.5793 -0.8929 -5.1091 0.0000 -0.0000 0.0000 12.0462 -17.2244 5.7973 12.7194 23.5762 7.1046 3.2810 -7.5210 -6.0016 -0.0000 -0.4735 0.0000 0.0000 -0.0000 0.0000 -0.0798 0.8622 5.0041 -0.0975 1.7278 9.5551 -13.7900 3.4793 3.5216 2.8087 4.7399 -44.6353 19.2580 21.3683 1.4995 19.5328 3.3685 -22.9489 15.5266 -8.4051 29.7873 4.3580 18.3322 -2.9518 -7.8437 -1.3376 -4.0519 -0.3047 1.0453 -2.1696 -0.4273 1.0324 -2.1649 0.9915 0.5156 -5.9783 3.3347 4.5005 -3.6861 0.4015 -1.1232 28.5263 -16.8310 19.0779 -0.7043 -14.9905 13.0964 10.1197 -15.5266 -8.4051 -29.7874 -4.3580 18.3322 2.9518 7.8438 -1.3376 4.0519 0.0000 -0.0000 0.0000 -3.8863 3.2533 16.1942 -6.2856 8.9802 2.3181 2.3490 -11.8434 -13.6134 -0.0000 -0.5863 0.0000 
0.0810 8.5274 0.0812 1.5832 -0.8858 -5.1144 0.0000 -0.0000 0.0000 12.0454 -17.2309 5.7998 12.7250 23.6030 7.1108 3.2710 -7.5187 -6.0006 -0.0000 -0.4718 0.0000 0.0000 -0.0000 0.0000 -0.0761 0.8578 5.0041 -0.0904 1.7187 9.5527 -13.7475 3.4875 3.5435 2.8338 4.7248 -44.6592 19.2672 21.3768 1.5027 19.5120 3.3762 -22.9640 15.5248 -8.4056 29.7857 4.3574 18.3327 -2.9524 -7.8443 -1.3371 -4.0524 -0.2951 1.0482 -2.1742 -0.4179 1.0354 -2.1696 1.0336 0.5111 -5.9999 3.3530 4.5000 -3.6650 0.3706 -1.1110 28.5221 -16.8296 19.0766 -0.7039 -15.0047 13.0797 10.1059 -15.5248 -8.4056 -29.7857 -4.3574 18.3328 2.9524 7.8442 -1.3371 4.0524 0.0000 -0.0000 0.0000 -3.8796 3.2854 16.1914 -6.2640 8.9379 2.3240 2.3466 -11.8343 -13.6063 -0.0000 -0.6006 -0.0000 
0.0820 8.5278 0.0837 1.5929 -0.8808 -5.1212 0.0000 -0.0000 0.0000 12.0413 -17.2290 5.8019 12.7282 23.6171 7.1180 3.2577 -7.5194 -6.0005 0.0000 -0.4681 -0.0000 0.0000 -0.0000 0.0000 -0.0742 0.8514 5.0029 -0.0869 1.7058 9.5472 -13.7150 3.4968 3.5767 2.8498 4.7156 -44.6968 19.2714 21.3807 1.5042 19.4941 3.3796 -22.9697 15.5207 -8.4069 29.7819 4.3560 18.3341 -2.9537 -7.8455 -1.3358 -4.0534 -0.2872 1.0534 -2.1758 -0.4103 1.0406 -2.1714 1.0684 0.5034 -6.0194 3.3633 4.5031 -3.6578 0.3388 -1.1036 28.5351 -16.8297 19.0767 -0.7039 -15.0094 13.0813 10.1170 -15.5207 -8.4069 -29.7820 -4.3560 18.3341 2.9536 7.8455 -1.3358 4.0534 0.0000 -0.0000 0.0000 -3.8694 3.3288 16.1925 -6.2520 8.8760 2.3274 2.3424 -11.8169 -13.5969 -0.0000 -0.6156 -0.0000 
0.0829 8.5282 0.0862 1.6064 -0.8765 -5.1291 0.0000 -0.0000 0.0000 12.0348 -17.2212 5.8030 12.7296 23.6219 7.1254 3.2443 -7.5289 -5.9967 -0.0000 -0.4639 0.0000 0.0000 -0.0000 0.0000 -0.0743 0.8430 5.0009 -0.0877 1.6890 9.5401 -13.6865 3.5084 3.6235 2.8556 4.7134 -44.7454 19.2701 21.3795 1.5037 19.4800 3.3872 -22.9787 15.5138 -8.4089 29.7756 4.3536 18.3364 -2.9558 -7.8476 -1.3336 -4.0552 -0.2819 1.0587 -2.1738 -0.4051 1.0459 -2.1696 1.0959 0.4906 -6.0380 3.3648 4.5102 -3.6637 0.3171 -1.1043 28.5569 -16.8322 19.0792 -0.7046 -15.0088 13.0974 10.1440 -15.5138 -8.4089 -29.7756 -4.3536 18.3363 2.9558 7.8476 -1.3336 4.0551 0.0000 -0.0000 0.0000 -3.8585 3.3759 16.1963 -6.2490 8.8073 2.3285 2.3379 -11.7974 -13.5858 -0.0000 -0.6249 -0.0000 
0.0839 8.5285 0.0886 1.6194 -0.8718 -5.1376 0.0000 -0.0000 0.0000 12.0277 -17.2140 5.8036 12.7315 23.6275 7.1329 3.2343 -7.5481 -5.9872 0.0000 -0.4615 0.0000 0.0000 -0.0000 0.0000 -0.0759 0.8329 4.9990 -0.0916 1.6690 9.5333 -13.6565 3.5232 3.6856 2.8532 4.7189 -44.8033 19.2641 21.3739 1.5016 19.4719 3.4038 -23.0025 15.5040 -8.4118 29.7665 4.3502 18.3396 -2.9588 -7.8506 -1.3306 -4.0576 -0.2789 1.0624 -2.1691 -0.4021 1.0497 -2.1648 1.1188 0.4720 -6.0554 3.3598 4.5211 -3.6796 0.3178 -1.1133 28.5765 -16.8372 19.0839 -0.7062 -15.0106 13.1170 10.1714 -15.5041 -8.4118 -29.7665 -4.3502 18.3396 2.9588 7.8506 -1.3306 4.0576 0.0000 -0.0000 0.0000 -3.8501 3.4179 16.2001 -6.2494 8.7478 2.3295 2.3341 -11.7826 -13.5748 0.0000 -0.6262 -0.0000 
